<?xml version="1.0" encoding="iso-8859-1"?>
<!-- Generator: Adobe Illustrator 19.0.0, SVG Export Plug-In . SVG Version: 6.00 Build 0)  -->
<svg version="1.1" id="Capa_1" xmlns="http://www.w3.org/2000/svg" xmlns:xlink="http://www.w3.org/1999/xlink" x="0px" y="0px"
	 viewBox="0 0 512 512" style="enable-background:new 0 0 512 512;" xml:space="preserve">
<g>
	<path style="fill:#2BB7FF;" d="M182.761,227.135H51.325c-23.509,0-42.566-19.058-42.566-42.566V53.132
		c0-23.509,19.058-42.566,42.566-42.566h131.437c23.509,0,42.566,19.058,42.566,42.566v131.437
		C225.328,208.077,206.27,227.135,182.761,227.135z"/>
	<path style="fill:#2BB7FF;" d="M460.676,227.135H329.239c-23.509,0-42.566-19.058-42.566-42.566V53.132
		c0-23.509,19.058-42.566,42.566-42.566h131.437c23.509,0,42.566,19.058,42.566,42.566v131.437
		C503.242,208.077,484.185,227.135,460.676,227.135z"/>
</g>
<g>
	<path style="fill:#2B96F5;" d="M182.838,198.746H51.402c-23.509,0-42.567-19.058-42.567-42.566v28.389
		c0,23.509,19.058,42.567,42.567,42.567h131.436c23.509,0,42.566-19.058,42.566-42.567V156.18
		C225.405,179.688,206.347,198.746,182.838,198.746z"/>
	<path style="fill:#2B96F5;" d="M460.753,198.746H329.316c-23.509,0-42.567-19.058-42.567-42.566v28.389
		c0,23.509,19.058,42.567,42.567,42.567h131.436c23.509,0,42.566-19.058,42.566-42.567V156.18
		C503.319,179.688,484.262,198.746,460.753,198.746z"/>
</g>
<path style="fill:#2BB7FF;" d="M181.872,501.434H51.107c-23.389,0-42.349-18.96-42.349-42.349V328.32
	c0-23.389,18.96-42.349,42.349-42.349h130.765c23.389,0,42.349,18.96,42.349,42.349v130.765
	C224.221,482.474,205.261,501.434,181.872,501.434z"/>
<path style="fill:#2B96F5;" d="M181.872,476.499H51.107c-23.389,0-42.349-18.96-42.349-42.349v24.935
	c0,23.389,18.96,42.349,42.349,42.349h130.765c23.389,0,42.349-18.96,42.349-42.349V434.15
	C224.222,457.539,205.261,476.499,181.872,476.499z"/>
<path style="fill:#7A6CF7;" d="M461.471,501.434H332.49c-23.07,0-41.771-18.702-41.771-41.771v-128.98
	c0-23.07,18.702-41.771,41.771-41.771h128.981c23.07,0,41.771,18.702,41.771,41.771v128.981
	C503.242,482.733,484.541,501.434,461.471,501.434z"/>
<path style="fill:#6959E2;" d="M461.471,475.311h-128.98c-23.07,0-41.771-18.702-41.771-41.771v26.124
	c0,23.07,18.702,41.771,41.771,41.771h128.98c23.07,0,41.771-18.701,41.771-41.771V433.54
	C503.242,456.609,484.541,475.311,461.471,475.311z"/>
<path style="fill:#FFE92F;" d="M430.029,449.807h-66.095c-3.939,0-7.132-3.193-7.132-7.132V392.8c0-3.939,3.193-7.132,7.132-7.132
	h66.095c3.939,0,7.132,3.193,7.132,7.132v49.876C437.16,446.614,433.967,449.807,430.029,449.807z"/>
<path d="M182.761,1.808H51.324C23.023,1.808,0,24.832,0,53.132v131.437c0,28.3,23.023,51.324,51.324,51.324h131.437
	c28.3,0,51.324-23.024,51.324-51.324v-74.257c0-4.837-3.92-8.758-8.758-8.758s-8.758,3.921-8.758,8.758v74.257
	c0,18.642-15.167,33.809-33.809,33.809H51.324c-18.642,0-33.809-15.167-33.809-33.809V53.132c0-18.642,15.167-33.808,33.809-33.808
	h131.437c18.642,0,33.809,15.167,33.809,33.808v22.701c0,4.837,3.92,8.758,8.758,8.758s8.758-3.921,8.758-8.758V53.132
	C234.086,24.832,211.061,1.808,182.761,1.808z"/>
<path d="M460.676,1.808H329.239c-28.301,0-51.324,23.024-51.324,51.324v131.437c0,28.3,23.023,51.324,51.324,51.324h131.437
	c28.3,0,51.324-23.024,51.324-51.324V53.132C512,24.832,488.975,1.808,460.676,1.808z M494.484,184.569
	c0,18.642-15.167,33.809-33.809,33.809H329.239c-18.642,0-33.809-15.167-33.809-33.809V53.132c0-18.642,15.167-33.808,33.809-33.808
	h131.437c18.642,0,33.809,15.167,33.809,33.808v131.437H494.484z"/>
<path d="M181.873,277.214H51.108C22.927,277.214,0,300.14,0,328.32v72.93c0,4.837,3.92,8.758,8.758,8.758s8.758-3.921,8.758-8.758
	v-72.93c0-18.523,15.07-33.591,33.592-33.591h130.765c18.523,0,33.591,15.068,33.591,33.591v130.765
	c0,18.523-15.068,33.591-33.591,33.591H51.108c-18.523,0-33.592-15.068-33.592-33.591v-16.252c0-4.837-3.92-8.758-8.758-8.758
	S0,437.996,0,442.833v16.252c0,28.18,22.927,51.107,51.108,51.107h130.765c28.18,0,51.107-22.927,51.107-51.107V328.32
	C232.979,300.14,210.053,277.214,181.873,277.214z"/>
<path d="M461.472,280.154H332.49c-27.862,0-50.528,22.668-50.528,50.53v128.98c0,27.862,22.667,50.528,50.528,50.528h77.869
	c4.837,0,8.758-3.92,8.758-8.758c0-4.837-3.92-8.758-8.758-8.758H332.49c-18.203,0-33.013-14.81-33.013-33.013v-128.98
	c0-18.204,14.81-33.014,33.013-33.014h128.982c18.203,0,33.013,14.81,33.013,33.014v128.98c0,18.203-14.81,33.013-33.013,33.013
	h-17.199c-4.837,0-8.758,3.921-8.758,8.758s3.92,8.758,8.758,8.758h17.199c27.862,0,50.528-22.667,50.528-50.528v-128.98
	C512,302.821,489.333,280.154,461.472,280.154z"/>
<path d="M114.199,110.312c4.837,0,8.758-3.921,8.758-8.758V50.112c0-4.837-3.92-8.758-8.758-8.758h-12.24
	c-4.837,0-8.758,3.921-8.758,8.758s3.92,8.758,8.758,8.758h3.483v42.685C105.442,106.391,109.362,110.312,114.199,110.312z"/>
<path d="M380.303,73.292c4.837,0,8.758-3.921,8.758-8.758c0-3.124,2.542-5.665,5.665-5.665h0.433c3.355,0,4.752,2.384,5.197,3.41
	c0.446,1.025,1.233,3.673-1.057,6.124l-25.394,27.171c-2.382,2.549-3.024,6.268-1.635,9.468c1.39,3.2,4.545,5.27,8.034,5.27h31.975
	c4.837,0,8.758-3.921,8.758-8.758c0-4.837-3.92-8.758-8.758-8.758h-11.803l11.62-12.434c6.404-6.853,8.063-16.455,4.328-25.059
	c-3.736-8.604-11.883-13.95-21.264-13.95h-0.433c-12.782,0-23.181,10.399-23.181,23.181
	C371.546,69.371,375.466,73.292,380.303,73.292z"/>
<path d="M115.365,375.569h-0.431c-3.083,0-5.591-2.508-5.591-5.591c0-4.837-3.92-8.758-8.758-8.758
	c-4.837,0-8.758,3.921-8.758,8.758c0,12.741,10.366,23.107,23.107,23.107h0.431c9.351,0,17.472-5.329,21.195-13.905
	c3.723-8.578,2.071-18.148-4.331-24.997l-0.402-0.428l0.419-0.448c6.385-6.831,8.037-16.402,4.314-24.979
	c-3.723-8.576-11.845-13.905-21.195-13.905h-0.431c-12.741,0-23.107,10.366-23.107,23.107c0,4.837,3.92,8.758,8.758,8.758
	c4.837,0,8.758-3.921,8.758-8.758c0-3.083,2.508-5.591,5.591-5.591h0.431c3.31,0,4.69,2.354,5.129,3.365
	c0.439,1.011,1.216,3.625-1.045,6.044l-6.023,6.445c-0.037,0.039-0.067,0.082-0.103,0.122c-0.107,0.118-0.207,0.239-0.306,0.362
	c-0.086,0.107-0.172,0.213-0.253,0.323c-0.093,0.126-0.178,0.255-0.263,0.385c-0.075,0.115-0.151,0.23-0.22,0.347
	c-0.076,0.128-0.144,0.259-0.213,0.39c-0.066,0.125-0.131,0.251-0.19,0.379c-0.059,0.127-0.111,0.256-0.163,0.386
	c-0.055,0.136-0.11,0.272-0.158,0.411c-0.044,0.126-0.081,0.253-0.119,0.381c-0.043,0.144-0.085,0.288-0.12,0.433
	c-0.031,0.128-0.055,0.256-0.08,0.384c-0.029,0.147-0.057,0.294-0.078,0.442c-0.019,0.131-0.031,0.262-0.043,0.393
	c-0.014,0.147-0.028,0.294-0.035,0.441c-0.006,0.136-0.006,0.271-0.006,0.407c0,0.143,0,0.285,0.007,0.428
	c0.007,0.14,0.021,0.28,0.034,0.42c0.013,0.138,0.027,0.275,0.046,0.413c0.021,0.142,0.048,0.283,0.076,0.424
	c0.027,0.135,0.052,0.269,0.085,0.402c0.034,0.14,0.075,0.277,0.116,0.415c0.04,0.134,0.08,0.267,0.126,0.399
	c0.047,0.133,0.1,0.263,0.153,0.394c0.055,0.135,0.109,0.269,0.171,0.401c0.058,0.123,0.121,0.244,0.185,0.365
	c0.071,0.135,0.142,0.269,0.22,0.401c0.068,0.114,0.141,0.225,0.214,0.337c0.087,0.133,0.176,0.264,0.271,0.393
	c0.079,0.107,0.164,0.211,0.249,0.316c0.101,0.124,0.202,0.247,0.311,0.366c0.036,0.039,0.066,0.082,0.102,0.12l6.006,6.39
	c2.26,2.419,1.484,5.032,1.045,6.044C120.055,373.216,118.675,375.569,115.365,375.569z"/>
<path d="M396.981,333.02c-17.036,0-30.894,13.859-30.894,30.894v12.996h-2.154c-8.761,0-15.889,7.128-15.889,15.889v49.876
	c0,8.761,7.128,15.889,15.889,15.889h66.096c8.761,0,15.889-7.128,15.889-15.889V392.8c0-8.761-7.128-15.889-15.889-15.889h-2.154
	v-12.996C427.875,346.878,414.016,333.02,396.981,333.02z M383.602,363.914c0-7.377,6.002-13.378,13.378-13.378
	s13.378,6.002,13.378,13.378v12.996h-26.757v-12.996H383.602z M428.403,441.05h-62.844v-46.624h9.286h44.273h9.286v46.624H428.403z"
	/>
<path d="M145.463,163.808c-0.901-4.753-5.494-7.871-10.238-6.97l-12.268,2.33v-10.364c0-4.837-3.92-8.758-8.758-8.758
	c-4.837,0-8.758,3.921-8.758,8.758v10.364l-12.267-2.33c-4.743-0.903-9.336,2.218-10.238,6.97c-0.903,4.752,2.218,9.336,6.97,10.238
	l10.07,1.912l-5.873,9.381c-2.566,4.1-1.323,9.504,2.777,12.07c1.445,0.905,3.052,1.336,4.639,1.336
	c2.917,0,5.769-1.457,7.432-4.112l5.248-8.384l5.249,8.384c1.663,2.655,4.515,4.111,7.432,4.111c1.587,0,3.195-0.432,4.639-1.336
	c4.1-2.567,5.342-7.971,2.776-12.07l-5.873-9.381l10.072-1.913C143.245,173.144,146.365,168.56,145.463,163.808z"/>
<path d="M415.982,156.838l-12.267,2.33v-10.364c0-4.837-3.92-8.758-8.758-8.758c-4.837,0-8.758,3.921-8.758,8.758v10.364
	l-12.268-2.33c-4.739-0.903-9.336,2.218-10.238,6.97s2.218,9.336,6.97,10.238l10.072,1.913l-5.873,9.381
	c-2.567,4.1-1.324,9.504,2.776,12.07c1.445,0.904,3.052,1.336,4.639,1.336c2.917,0,5.769-1.457,7.432-4.111l5.249-8.384l5.248,8.384
	c1.663,2.655,4.515,4.112,7.432,4.112c1.587,0,3.194-0.432,4.639-1.336c4.1-2.566,5.342-7.97,2.777-12.07l-5.873-9.381l10.07-1.912
	c4.752-0.902,7.873-5.486,6.97-10.238C425.318,159.055,420.728,155.937,415.982,156.838z"/>
<path d="M82.514,443.525c-0.902,4.752,2.218,9.336,6.97,10.238l9.955,1.89l-5.809,9.279c-2.566,4.1-1.323,9.504,2.777,12.07
	c1.445,0.904,3.052,1.335,4.639,1.335c2.917,0,5.769-1.457,7.432-4.112l5.184-8.281l5.184,8.281
	c1.663,2.656,4.515,4.112,7.432,4.112c1.587,0,3.194-0.431,4.639-1.335c4.1-2.567,5.342-7.971,2.777-12.07l-5.809-9.279l9.955-1.89
	c4.752-0.902,7.872-5.486,6.97-10.238c-0.902-4.753-5.496-7.872-10.238-6.97l-12.151,2.307v-10.257c0-4.837-3.92-8.758-8.758-8.758
	c-4.837,0-8.758,3.921-8.758,8.758v10.257l-12.151-2.307C88.01,435.653,83.416,438.773,82.514,443.525z"/>
<g>
</g>
<g>
</g>
<g>
</g>
<g>
</g>
<g>
</g>
<g>
</g>
<g>
</g>
<g>
</g>
<g>
</g>
<g>
</g>
<g>
</g>
<g>
</g>
<g>
</g>
<g>
</g>
<g>
</g>
</svg>
