<?xml version="1.0" encoding="iso-8859-1"?>
<!-- Generator: Adobe Illustrator 19.0.0, SVG Export Plug-In . SVG Version: 6.00 Build 0)  -->
<svg version="1.1" id="Capa_1" xmlns="http://www.w3.org/2000/svg" xmlns:xlink="http://www.w3.org/1999/xlink" x="0px" y="0px"
	 viewBox="0 0 512 512" style="enable-background:new 0 0 512 512;" xml:space="preserve">
<g>
	<g>
		<path d="M225.328,84.591c4.838,0,8.758-3.921,8.758-8.758V53.132c0-28.3-23.025-51.324-51.325-51.324H51.324
			C23.023,1.808,0,24.832,0,53.132v131.437c0,28.3,23.023,51.324,51.324,51.324h131.437c28.3,0,51.324-23.024,51.324-51.324v-74.257
			c0-4.837-3.92-8.758-8.758-8.758s-8.758,3.921-8.758,8.758v74.257c0,18.642-15.167,33.809-33.809,33.809H51.324
			c-18.642,0-33.809-15.167-33.809-33.809V53.132c0-18.642,15.167-33.808,33.809-33.808h131.437
			c18.642,0,33.809,15.167,33.809,33.808v22.701C216.57,80.67,220.49,84.591,225.328,84.591z"/>
	</g>
</g>
<g>
	<g>
		<path d="M460.676,1.808H329.239c-28.301,0-51.324,23.024-51.324,51.324v131.437c0,28.3,23.023,51.324,51.324,51.324h131.437
			c28.3,0,51.324-23.024,51.324-51.324V53.132C512,24.832,488.975,1.808,460.676,1.808z M494.485,184.569h-0.001
			c0,18.642-15.167,33.809-33.809,33.809H329.239c-18.642,0-33.809-15.167-33.809-33.809V53.132
			c0-18.642,15.167-33.808,33.809-33.808h131.437c18.642,0,33.809,15.167,33.809,33.808V184.569z"/>
	</g>
</g>
<g>
	<g>
		<path d="M181.873,277.214H51.108C22.927,277.214,0,300.14,0,328.32v72.93c0,4.837,3.92,8.758,8.758,8.758s8.758-3.921,8.758-8.758
			v-72.93c0-18.523,15.07-33.591,33.592-33.591h130.765c18.523,0,33.591,15.068,33.591,33.591v130.765
			c0,18.523-15.068,33.591-33.591,33.591H51.108c-18.523,0-33.592-15.068-33.592-33.591v-16.252c0-4.837-3.92-8.758-8.758-8.758
			S0,437.996,0,442.833v16.252c0,28.18,22.927,51.107,51.108,51.107h130.765c28.18,0,51.107-22.927,51.107-51.107V328.32
			C232.979,300.14,210.053,277.214,181.873,277.214z"/>
	</g>
</g>
<g>
	<g>
		<path d="M461.472,280.154H332.49c-27.862,0-50.528,22.668-50.528,50.53v128.98c0,27.862,22.667,50.528,50.528,50.528h77.869
			c4.837,0,8.758-3.92,8.758-8.758c0-4.837-3.92-8.758-8.758-8.758H332.49c-18.203,0-33.013-14.81-33.013-33.013v-128.98
			c0-18.204,14.81-33.014,33.013-33.014h128.982c18.203,0,33.013,14.81,33.013,33.014v128.98c0,18.203-14.81,33.013-33.013,33.013
			h-17.199c-4.837,0-8.758,3.921-8.758,8.758c0,4.837,3.92,8.758,8.758,8.758h17.199c27.862,0,50.528-22.667,50.528-50.528v-128.98
			C512,302.821,489.333,280.154,461.472,280.154z"/>
	</g>
</g>
<g>
	<g>
		<path d="M114.199,41.354h-12.24c-4.837,0-8.758,3.921-8.758,8.758s3.92,8.758,8.758,8.758h3.483v42.685
			c0,4.836,3.92,8.757,8.757,8.757c4.837,0,8.758-3.921,8.758-8.758V50.112C122.957,45.275,119.037,41.354,114.199,41.354z"/>
	</g>
</g>
<g>
	<g>
		<path d="M412.279,92.796h-11.803l11.62-12.434c6.404-6.853,8.063-16.455,4.328-25.059c-3.736-8.604-11.883-13.95-21.264-13.95
			h-0.433c-12.782,0-23.181,10.399-23.181,23.181c0,4.837,3.92,8.758,8.757,8.758c4.837,0,8.758-3.921,8.758-8.758
			c0-3.124,2.542-5.665,5.665-5.665h0.433c3.355,0,4.752,2.384,5.197,3.41c0.446,1.025,1.233,3.673-1.057,6.124l-25.394,27.171
			c-2.382,2.549-3.024,6.268-1.635,9.468c1.39,3.2,4.545,5.27,8.034,5.27h31.975c4.837,0,8.758-3.921,8.758-8.758
			C421.037,96.717,417.117,92.796,412.279,92.796z"/>
	</g>
</g>
<g>
	<g>
		<path d="M131.827,353.755l0.419-0.448c6.385-6.831,8.037-16.402,4.314-24.979c-3.723-8.576-11.845-13.905-21.195-13.905h-0.431
			c-12.741,0-23.107,10.366-23.107,23.107c0,4.837,3.92,8.758,8.758,8.758c4.837,0,8.758-3.921,8.758-8.758
			c0-3.083,2.508-5.591,5.591-5.591h0.431c3.31,0,4.69,2.354,5.129,3.365c0.439,1.011,1.216,3.625-1.045,6.044l-6.023,6.445
			c-3.103,3.319-3.098,8.668,0.017,11.978l6.006,6.39c2.26,2.419,1.484,5.032,1.045,6.044c-0.439,1.011-1.819,3.364-5.129,3.364
			h-0.431c-3.083,0-5.591-2.508-5.591-5.591c0-4.837-3.92-8.758-8.758-8.758c-4.837,0-8.758,3.921-8.758,8.758
			c0,12.741,10.366,23.107,23.107,23.107h0.431c9.351,0,17.472-5.329,21.195-13.905c3.723-8.578,2.071-18.148-4.331-24.997
			L131.827,353.755z"/>
	</g>
</g>
<g>
	<g>
		<path d="M430.029,376.911h-2.154v-12.996c0-17.037-13.859-30.895-30.894-30.895c-17.036,0-30.894,13.859-30.894,30.894v12.996
			h-2.154c-8.761,0-15.889,7.128-15.889,15.889v49.876c0,8.761,7.128,15.889,15.889,15.889h66.096
			c8.761,0,15.889-7.128,15.889-15.889V392.8C445.918,384.039,438.79,376.911,430.029,376.911z M383.601,363.914L383.601,363.914
			c0.001-7.377,6.003-13.378,13.379-13.378s13.378,6.002,13.378,13.378v12.996h-26.757V363.914z M428.404,441.05h-0.001h-62.844
			v-46.624h9.286h44.273h9.286V441.05z"/>
	</g>
</g>
<g>
	<g>
		<path d="M145.463,163.808c-0.901-4.753-5.494-7.871-10.238-6.97l-12.268,2.33v-10.364c0-4.837-3.92-8.758-8.758-8.758
			c-4.837,0-8.758,3.921-8.758,8.758v10.364l-12.267-2.33c-4.743-0.903-9.336,2.218-10.238,6.97
			c-0.903,4.752,2.218,9.336,6.97,10.238l10.07,1.912l-5.873,9.381c-2.566,4.1-1.323,9.504,2.777,12.07
			c1.445,0.905,3.052,1.336,4.639,1.336c2.917,0,5.769-1.457,7.432-4.112l5.248-8.384l5.249,8.384
			c1.663,2.655,4.515,4.111,7.432,4.111c1.587,0,3.195-0.432,4.639-1.336c4.1-2.567,5.342-7.971,2.776-12.07l-5.873-9.381
			l10.072-1.913C143.245,173.144,146.365,168.56,145.463,163.808z"/>
	</g>
</g>
<g>
	<g>
		<path d="M426.221,163.81c-0.903-4.755-5.493-7.873-10.239-6.972l-12.267,2.33v-10.364c0-4.837-3.92-8.758-8.758-8.758
			c-4.837,0-8.758,3.921-8.758,8.758v10.364l-12.268-2.33c-4.739-0.903-9.336,2.218-10.238,6.97
			c-0.902,4.752,2.218,9.336,6.97,10.238l10.072,1.913l-5.873,9.381c-2.567,4.1-1.324,9.504,2.776,12.07
			c1.445,0.904,3.052,1.336,4.639,1.336c2.917,0,5.769-1.457,7.432-4.111l5.249-8.384l5.248,8.384
			c1.663,2.655,4.515,4.112,7.432,4.112c1.587,0,3.194-0.432,4.639-1.336c4.1-2.566,5.342-7.97,2.777-12.07l-5.873-9.381
			l10.07-1.912C424.003,173.146,427.124,168.562,426.221,163.81z"/>
	</g>
</g>
<g>
	<g>
		<path d="M144.81,443.525c-0.902-4.753-5.496-7.872-10.238-6.97l-12.151,2.307v-10.257c0-4.837-3.92-8.758-8.758-8.758
			c-4.837,0-8.758,3.921-8.758,8.758v10.257l-12.151-2.307c-4.744-0.902-9.338,2.218-10.24,6.97
			c-0.902,4.752,2.218,9.336,6.97,10.238l9.955,1.89l-5.809,9.279c-2.566,4.1-1.323,9.504,2.777,12.07
			c1.445,0.904,3.052,1.335,4.639,1.335c2.917,0,5.769-1.457,7.432-4.112l5.184-8.281l5.184,8.281
			c1.663,2.656,4.515,4.112,7.432,4.112c1.587,0,3.194-0.431,4.639-1.335c4.1-2.567,5.342-7.971,2.777-12.07l-5.809-9.279
			l9.955-1.89C142.592,452.861,145.712,448.277,144.81,443.525z"/>
	</g>
</g>
<g>
</g>
<g>
</g>
<g>
</g>
<g>
</g>
<g>
</g>
<g>
</g>
<g>
</g>
<g>
</g>
<g>
</g>
<g>
</g>
<g>
</g>
<g>
</g>
<g>
</g>
<g>
</g>
<g>
</g>
</svg>
