<svg width="22" height="21" viewBox="0 0 22 21" fill="none" xmlns="http://www.w3.org/2000/svg">
<path d="M10.3989 -0.28871C10.3052 -0.421221 10.1529 -0.5 9.99065 -0.5C9.82835 -0.5 9.67614 -0.421221 9.58242 -0.28871L6.09807 4.63803L0.340209 6.43248C0.185392 6.48072 0.063588 6.60106 0.0134633 6.75528C-0.0366615 6.9095 -0.00888171 7.07845 0.0879842 7.2085L3.69259 12.048L3.61833 18.084C3.61633 18.2463 3.69318 18.3994 3.82446 18.4947C3.95574 18.5901 4.12511 18.6158 4.27878 18.5637L9.99065 16.6279L15.7025 18.5637C15.8562 18.6158 16.0256 18.5901 16.1568 18.4947C16.2881 18.3994 16.365 18.2463 16.363 18.084L16.2887 12.048L19.8933 7.2085C19.9902 7.07845 20.018 6.9095 19.9678 6.75528C19.9177 6.60106 19.7959 6.48072 19.6411 6.43248L13.8832 4.63803L10.3989 -0.28871Z" transform="translate(1 1)" stroke="#FFD600" stroke-linecap="round" stroke-linejoin="round"/>
</svg>
